<svg width="16" height="16" viewBox="0 0 16 16" fill="none" xmlns="http://www.w3.org/2000/svg">
<path d="M8.00001 1.33334C5.42001 1.33334 3.33334 3.42001 3.33334 6.00001C3.33334 9.50001 8.00001 14.6667 8.00001 14.6667C8.00001 14.6667 12.6667 9.50001 12.6667 6.00001C12.6667 3.42001 10.58 1.33334 8.00001 1.33334ZM8.00001 7.66668C7.55798 7.66668 7.13406 7.49108 6.8215 7.17852C6.50894 6.86596 6.33334 6.44204 6.33334 6.00001C6.33334 5.55798 6.50894 5.13406 6.8215 4.8215C7.13406 4.50894 7.55798 4.33334 8.00001 4.33334C8.44204 4.33334 8.86596 4.50894 9.17852 4.8215C9.49108 5.13406 9.66668 5.55798 9.66668 6.00001C9.66668 6.44204 9.49108 6.86596 9.17852 7.17852C8.86596 7.49108 8.44204 7.66668 8.00001 7.66668Z" fill="#295FFE"/>
</svg>
