<svg width="16" height="16" viewBox="0 0 16 16" fill="none" xmlns="http://www.w3.org/2000/svg">
<path d="M8.00001 1.33325C5.42001 1.33325 3.33334 3.41992 3.33334 5.99992C3.33334 9.49992 8.00001 14.6666 8.00001 14.6666C8.00001 14.6666 12.6667 9.49992 12.6667 5.99992C12.6667 3.41992 10.58 1.33325 8.00001 1.33325ZM8.00001 7.66659C7.55798 7.66659 7.13406 7.49099 6.8215 7.17843C6.50894 6.86587 6.33334 6.44195 6.33334 5.99992C6.33334 5.55789 6.50894 5.13397 6.8215 4.82141C7.13406 4.50885 7.55798 4.33325 8.00001 4.33325C8.44204 4.33325 8.86596 4.50885 9.17852 4.82141C9.49108 5.13397 9.66668 5.55789 9.66668 5.99992C9.66668 6.44195 9.49108 6.86587 9.17852 7.17843C8.86596 7.49099 8.44204 7.66659 8.00001 7.66659Z" fill="white"/>
</svg>
