<svg width="158" height="50" viewBox="0 0 158 50" fill="none" xmlns="http://www.w3.org/2000/svg">
<path d="M60.1426 20V7.20312H64.625C66.1777 7.20312 67.3555 7.50195 68.1582 8.09961C68.9609 8.69141 69.3623 9.56152 69.3623 10.71C69.3623 11.3369 69.2012 11.8906 68.8789 12.3711C68.5566 12.8457 68.1084 13.1943 67.5342 13.417C68.1904 13.5811 68.7061 13.9121 69.0811 14.4102C69.4619 14.9082 69.6523 15.5176 69.6523 16.2383C69.6523 17.4688 69.2598 18.4004 68.4746 19.0332C67.6895 19.666 66.5703 19.9883 65.1172 20H60.1426ZM62.7793 14.4277V17.8818H65.0381C65.6592 17.8818 66.1426 17.7354 66.4883 17.4424C66.8398 17.1436 67.0156 16.7334 67.0156 16.2119C67.0156 15.04 66.4092 14.4453 65.1963 14.4277H62.7793ZM62.7793 12.5645H64.7305C66.0605 12.541 66.7256 12.0107 66.7256 10.9736C66.7256 10.3936 66.5557 9.97754 66.2158 9.72559C65.8818 9.46777 65.3516 9.33887 64.625 9.33887H62.7793V12.5645ZM78.8633 17.3633H74.2402L73.3613 20H70.5576L75.3213 7.20312H77.7646L82.5547 20H79.751L78.8633 17.3633ZM74.9521 15.2275H78.1514L76.543 10.4375L74.9521 15.2275ZM94.1562 20H91.5195L86.3867 11.5801V20H83.75V7.20312H86.3867L91.5283 15.6406V7.20312H94.1562V20ZM100.467 14.8672L99.0957 16.3438V20H96.459V7.20312H99.0957V13.0039L100.256 11.4131L103.517 7.20312H106.76L102.216 12.8896L106.892 20H103.754L100.467 14.8672ZM118.115 13.8916C118.115 15.1514 117.893 16.2559 117.447 17.2051C117.002 18.1543 116.363 18.8867 115.531 19.4023C114.705 19.918 113.756 20.1758 112.684 20.1758C111.623 20.1758 110.677 19.9209 109.845 19.4111C109.013 18.9014 108.368 18.1748 107.911 17.2314C107.454 16.2822 107.223 15.1924 107.217 13.9619V13.3291C107.217 12.0693 107.442 10.9619 107.894 10.0068C108.351 9.0459 108.992 8.31055 109.818 7.80078C110.65 7.28516 111.6 7.02734 112.666 7.02734C113.732 7.02734 114.679 7.28516 115.505 7.80078C116.337 8.31055 116.979 9.0459 117.43 10.0068C117.887 10.9619 118.115 12.0664 118.115 13.3203V13.8916ZM115.443 13.3115C115.443 11.9697 115.203 10.9502 114.723 10.2529C114.242 9.55566 113.557 9.20703 112.666 9.20703C111.781 9.20703 111.099 9.55273 110.618 10.2441C110.138 10.9297 109.895 11.9375 109.889 13.2676V13.8916C109.889 15.1982 110.129 16.2119 110.609 16.9326C111.09 17.6533 111.781 18.0137 112.684 18.0137C113.568 18.0137 114.248 17.668 114.723 16.9766C115.197 16.2793 115.438 15.2656 115.443 13.9355V13.3115ZM123.477 7.20312L126.764 16.4844L130.033 7.20312H133.496V20H130.851V16.502L131.114 10.4639L127.66 20H125.85L122.404 10.4727L122.668 16.502V20H120.031V7.20312H123.477ZM143.182 17.3633H138.559L137.68 20H134.876L139.64 7.20312H142.083L146.873 20H144.069L143.182 17.3633ZM139.271 15.2275H142.47L140.861 10.4375L139.271 15.2275ZM156.646 9.33887H152.727V20H150.09V9.33887H146.223V7.20312H156.646V9.33887Z" fill="#295FFE"/>
<path d="M56.4258 38.75C56.8242 38.75 57.1318 38.8643 57.3486 39.0928C57.5654 39.3154 57.6738 39.5967 57.6738 39.9365C57.6738 40.2705 57.5654 40.5488 57.3486 40.7715C57.1318 40.9883 56.8242 41.0967 56.4258 41.0967C56.0449 41.0967 55.7432 40.9883 55.5205 40.7715C55.2979 40.5547 55.1865 40.2764 55.1865 39.9365C55.1865 39.5967 55.2949 39.3154 55.5117 39.0928C55.7285 38.8643 56.0332 38.75 56.4258 38.75ZM70.1367 39.3389C69.6738 39.9424 69.0322 40.3994 68.2119 40.71C67.3916 41.0205 66.46 41.1758 65.417 41.1758C64.3447 41.1758 63.3955 40.9326 62.5693 40.4463C61.7432 39.96 61.1045 39.2656 60.6533 38.3633C60.208 37.4551 59.9766 36.3975 59.959 35.1904V34.1885C59.959 32.2549 60.4219 30.7461 61.3477 29.6621C62.2734 28.5723 63.5654 28.0273 65.2236 28.0273C66.6475 28.0273 67.7783 28.3789 68.6162 29.082C69.4541 29.7852 69.958 30.7988 70.1279 32.123H67.9482C67.7021 30.582 66.8086 29.8115 65.2676 29.8115C64.2715 29.8115 63.5127 30.1719 62.9912 30.8926C62.4756 31.6074 62.209 32.6592 62.1914 34.0479V35.0322C62.1914 36.415 62.4814 37.4902 63.0615 38.2578C63.6475 39.0195 64.459 39.4004 65.4961 39.4004C66.6328 39.4004 67.4414 39.1426 67.9219 38.627V36.1221H65.2852V34.4346H70.1367V39.3389ZM81.9404 28.2031V36.7549C81.9404 38.1143 81.5039 39.1924 80.6309 39.9893C79.7637 40.7803 78.6064 41.1758 77.1592 41.1758C75.6943 41.1758 74.5312 40.7861 73.6699 40.0068C72.8086 39.2217 72.3779 38.1348 72.3779 36.7461V28.2031H74.5928V36.7637C74.5928 37.6191 74.8096 38.2725 75.2432 38.7236C75.6768 39.1748 76.3154 39.4004 77.1592 39.4004C78.8701 39.4004 79.7256 38.498 79.7256 36.6934V28.2031H81.9404ZM89.0244 36.0693H86.5459V41H84.3223V28.2031H88.8223C90.2988 28.2031 91.4385 28.5342 92.2412 29.1963C93.0439 29.8584 93.4453 30.8164 93.4453 32.0703C93.4453 32.9258 93.2373 33.6436 92.8213 34.2236C92.4111 34.7979 91.8369 35.2402 91.0986 35.5508L93.9727 40.8857V41H91.5908L89.0244 36.0693ZM86.5459 34.2852H88.8311C89.5811 34.2852 90.167 34.0977 90.5889 33.7227C91.0107 33.3418 91.2217 32.8232 91.2217 32.167C91.2217 31.4814 91.0254 30.9512 90.6328 30.5762C90.2461 30.2012 89.666 30.0078 88.8926 29.9961H86.5459V34.2852ZM104.915 28.2031V36.7549C104.915 38.1143 104.479 39.1924 103.605 39.9893C102.738 40.7803 101.581 41.1758 100.134 41.1758C98.6689 41.1758 97.5059 40.7861 96.6445 40.0068C95.7832 39.2217 95.3525 38.1348 95.3525 36.7461V28.2031H97.5674V36.7637C97.5674 37.6191 97.7842 38.2725 98.2178 38.7236C98.6514 39.1748 99.29 39.4004 100.134 39.4004C101.845 39.4004 102.7 38.498 102.7 36.6934V28.2031H104.915Z" fill="#56CCF2"/>
<g clip-path="url(#clip0)">
<path d="M35.8492 6.06581C33.6598 3.91104 31.0151 2.25934 28.1039 1.22854C25.1927 0.197743 22.0867 -0.186746 19.0075 0.102502C15.9282 0.391751 12.9517 1.34761 10.2901 2.90189C7.62859 4.45616 5.34767 6.57055 3.61011 9.0942C5.96764 5.69158 9.56568 3.31739 13.6544 2.46639C17.7432 1.6154 22.0072 2.35324 25.558 4.52616C29.1087 6.69908 31.6722 10.1395 32.7143 14.1303C33.7563 18.1212 33.1966 22.3547 31.1516 25.9486C30.8309 26.5484 30.4562 27.1185 30.032 27.6521C29.2218 28.7286 28.2793 29.702 27.2263 30.5498L21.0206 36.6877L14.2483 43.3439L21.0206 50.0226L35.8675 35.3763C39.8053 31.4865 42.0154 26.2138 42.012 20.7173C42.0086 15.2209 39.7919 9.95081 35.8492 6.06581Z" fill="#56CCF2"/>
<path d="M33.2171 18.1343C33.2172 14.7177 32.1082 11.3907 30.0525 8.64064C27.9967 5.89053 25.1022 3.86169 21.7927 2.85118C18.4832 1.84067 14.9326 1.90157 11.6607 3.02496C8.38886 4.14835 5.56762 6.27523 3.61008 9.09418L3.49127 9.26993C3.36789 9.45019 3.24908 9.63045 3.13483 9.81522L3.10742 9.86029C0.637451 13.8292 -0.405519 18.5026 0.146592 23.1275C0.698704 27.7523 2.81374 32.0591 6.15083 35.3537L10.8393 39.9775L17.5888 33.3213L12.9003 28.6976C11.4027 27.2205 10.3496 25.3628 9.85815 23.331C9.36667 21.2993 9.45596 19.1729 10.1161 17.1881C10.7763 15.2034 11.9815 13.4379 13.5978 12.088C15.2141 10.738 17.1782 9.85642 19.272 9.54106C21.3658 9.22569 23.5073 9.48894 25.4585 10.3016C27.4097 11.1142 29.0943 12.4443 30.3251 14.1443C31.5559 15.8442 32.2848 17.8474 32.4307 19.9312C32.5766 22.0151 32.1338 24.098 31.1516 25.9486C32.5102 23.5624 33.2216 20.8709 33.2171 18.1343Z" fill="#2D9CDB"/>
<path d="M28.4464 20.996C28.3992 22.8374 27.6243 24.5877 26.287 25.8737C24.9497 27.1596 23.1558 27.8793 21.288 27.8793C19.4201 27.8793 17.6263 27.1596 16.2889 25.8737C14.9516 24.5877 14.1767 22.8374 14.1295 20.996C14.1054 20.0539 14.2727 19.1166 14.6216 18.2393C14.9705 17.362 15.4939 16.5624 16.161 15.8877C16.8281 15.2129 17.6254 14.6767 18.506 14.3106C19.3865 13.9445 20.3324 13.7559 21.288 13.7559C22.2435 13.7559 23.1895 13.9445 24.07 14.3106C24.9505 14.6767 25.7478 15.2129 26.4149 15.8877C27.082 16.5624 27.6054 17.362 27.9543 18.2393C28.3032 19.1166 28.4705 20.0539 28.4464 20.996Z" fill="#295FFE"/>
</g>
<defs>
<clipPath id="clip0">
<rect width="42" height="50" fill="white"/>
</clipPath>
</defs>
</svg>
