<svg width="42" height="34" viewBox="0 0 42 34" fill="none" xmlns="http://www.w3.org/2000/svg">
<path d="M3.69031 5.10837C6.61323 1.93962 11.0361 0.333374 16.8341 0.333374H18.9174V6.20629L17.2424 6.54171C14.3882 7.11254 12.4028 8.23546 11.3403 9.88337C10.7859 10.7711 10.4715 11.7876 10.4278 12.8334H16.8341C17.3866 12.8334 17.9165 13.0529 18.3072 13.4436C18.6979 13.8343 18.9174 14.3642 18.9174 14.9167V29.5C18.9174 31.798 17.0486 33.6667 14.7507 33.6667H2.25073C1.6982 33.6667 1.16829 33.4472 0.777591 33.0565C0.38689 32.6658 0.167397 32.1359 0.167397 31.5834V21.1667L0.173647 15.0855C0.154897 14.8542 -0.240937 9.37504 3.69031 5.10837ZM37.6674 33.6667H25.1674C24.6149 33.6667 24.085 33.4472 23.6943 33.0565C23.3036 32.6658 23.0841 32.1359 23.0841 31.5834V21.1667L23.0903 15.0855C23.0716 14.8542 22.6757 9.37504 26.607 5.10837C29.5299 1.93962 33.9528 0.333374 39.7507 0.333374H41.8341V6.20629L40.1591 6.54171C37.3049 7.11254 35.3195 8.23546 34.257 9.88337C33.7026 10.7711 33.3882 11.7876 33.3445 12.8334H39.7507C40.3033 12.8334 40.8332 13.0529 41.2239 13.4436C41.6146 13.8343 41.8341 14.3642 41.8341 14.9167V29.5C41.8341 31.798 39.9653 33.6667 37.6674 33.6667Z" fill="#295FFE"/>
</svg>
