<svg width="250" height="51" viewBox="0 0 250 51" fill="none" xmlns="http://www.w3.org/2000/svg">
<mask id="mask0" mask-type="alpha" maskUnits="userSpaceOnUse" x="0" y="0" width="23" height="51">
<path d="M0.0215607 0.30127H22.922V50.978H0.0215607V0.30127Z" fill="white"/>
</mask>
<g mask="url(#mask0)">
<path d="M6.51188 34.1634L11.4605 39.3001V27.6028C11.4605 25.3291 10.2483 22.545 8.71269 20.9805L3.82123 15.9003V27.6028C3.82123 29.8471 5.03844 32.6591 6.51188 34.1634ZM22.922 51L14.3024 42.2401C12.5968 40.4959 9.62945 39.3001 7.18283 39.3001H0L8.60883 48.049C10.3726 49.8542 12.999 51 15.4819 51H22.922ZM11.4612 16.1043C11.4612 13.569 12.5871 10.8887 14.3552 9.08684L22.922 0.30127V7.63279C22.922 10.1285 21.7508 13.1566 20.042 14.9034L11.4612 23.6989V16.1043Z" fill="#E15D29"/>
</g>
<path d="M144.673 34.0611C144.673 34.9731 143.932 35.7063 143.001 35.7063L138.146 35.716C137.225 35.716 136.471 34.9858 136.471 34.0737V27.4993C136.471 26.5955 137.225 25.8627 138.146 25.8627L143.001 25.8504C143.932 25.8504 144.673 26.5804 144.673 27.4827V34.0611ZM143.841 22.5593L137.462 22.5759C134.7 22.5759 132.448 24.7844 132.448 27.4993V28.649H128.946V22.5759H124.766V39H128.946V31.9362H132.448V34.0737C132.448 36.7842 134.7 39 137.462 39L143.841 38.9877C146.596 38.9877 148.85 36.7723 148.85 34.0611V27.4827C148.85 24.7743 146.596 22.5593 143.841 22.5593ZM110.062 22.5759H120.703V39H116.53V25.8652C114.208 25.8652 110.895 25.8627 110.895 25.8627C109.974 25.8627 109.226 26.5955 109.226 27.4993V34.0737C109.226 36.7842 106.978 39 104.214 39H102.874V35.716H103.38C104.3 35.716 105.048 34.9858 105.048 34.0737V27.4993C105.048 24.7844 107.295 22.5759 110.062 22.5759ZM32.1312 30.7894L35.946 20.2754L39.8551 30.7894H32.1312ZM33.468 16L24 39H29.1506L30.9373 34.0737H41.0765L42.9145 39H47.8957L38.4237 16H33.468ZM150.374 22.5759H165.113V25.8627H159.828V39H155.658V25.8627H150.374V22.5759ZM61.3476 34.0737C61.3476 34.9858 60.594 35.716 59.6743 35.716H54.6655C53.7403 35.716 52.995 34.9858 52.995 34.0737V27.4949C53.0013 26.5955 53.7436 25.8627 54.6655 25.8627H59.6743C60.594 25.8627 61.3476 26.5955 61.3476 27.4993V34.0737ZM60.5111 22.5759H55.9155C54.8275 22.5759 53.822 22.9195 52.9969 23.4998V20.927C52.9969 20.0207 53.7436 19.2904 54.6655 19.2904H63.5162V16H53.8279C51.0687 16 48.8199 18.2129 48.8199 20.927V34.0737C48.8199 36.7842 51.0662 39 53.8279 39H60.5111C63.2739 39 65.521 36.7842 65.521 34.0737V27.4993C65.521 24.7844 63.2739 22.5759 60.5111 22.5759ZM97.053 34.0737C97.053 34.9858 96.299 35.716 95.3822 35.716H90.3749C89.4486 35.716 88.7008 34.9858 88.7008 34.0737V27.4993C88.7008 26.5955 89.4486 25.8627 90.3749 25.8627H95.3822C96.299 25.8627 97.053 26.5955 97.053 27.4993V34.0737ZM96.2129 22.5759H89.5333C86.7749 22.5759 84.5264 24.7844 84.5264 27.4993V34.0737C84.5264 36.7842 86.7749 39 89.5333 39H96.2129C98.9827 39 101.229 36.7842 101.229 34.0737V27.4993C101.229 24.7844 98.9827 22.5759 96.2129 22.5759ZM72.4359 27.4993V34.0737C72.4359 34.9858 73.18 35.716 74.1041 35.716H82.3559V39H73.2654C70.5081 39 68.2585 36.7842 68.2585 34.0737V27.4993C68.2585 24.7844 70.5081 22.5759 73.2654 22.5759H82.3559V25.8627H74.1041C73.18 25.8627 72.4359 26.5955 72.4359 27.4993ZM186.163 32.2409C186.163 34.1581 184.58 35.716 182.631 35.716H176.245V27.2724H182.631C184.58 27.2724 186.163 28.8243 186.163 30.7446V32.2409ZM183.983 23.978H176.245V19.2876H189.103L189.101 16H172.068V39H183.983C187.78 39 190.862 35.9761 190.862 32.2409V30.7446C190.862 27.0124 187.78 23.978 183.983 23.978ZM239.303 31.9362H237.781V39H233.603V22.5759H237.781V28.649H239.311L244.828 22.5759H249.525L242.481 30.3061L250 39H244.775L239.303 31.9362ZM205.657 35.716H198.972C198.039 35.716 197.292 34.9858 197.292 34.0737V33.9006C197.292 32.9889 198.039 32.2492 198.972 32.2492H205.657V35.716ZM204.81 22.5759H194.296V25.8627H203.975C204.9 25.8627 205.657 26.5955 205.657 27.4993V28.9624H198.126C195.37 28.9624 193.124 31.1745 193.124 33.9006V34.0737C193.124 36.7842 195.37 39 198.126 39H209.817V27.4993C209.817 24.7844 207.573 22.5759 204.81 22.5759ZM225.759 22.5759H229.935V39H225.759V31.9362H217.58V39H213.396V22.5759H217.58V28.649H225.759V22.5759Z" fill="#595A59"/>
</svg>
