<svg width="250" height="50" viewBox="0 0 250 50" fill="none" xmlns="http://www.w3.org/2000/svg">
<path d="M43.5 34.625C42.875 34.625 42.5 35 42.5 35.625V41H34.375V35.625C34.375 35 34 34.625 33.375 34.625C32.75 34.625 32.375 35 32.375 35.625V48.625C32.375 49.25 32.75 49.625 33.375 49.625C34 49.625 34.375 49.25 34.375 48.625V42.875H42.625V48.625C42.625 49.25 43 49.625 43.625 49.625C44.25 49.625 44.625 49.25 44.625 48.625V35.625C44.5 35 44.125 34.625 43.5 34.625ZM53.625 42L59.375 36.25C59.625 36 59.75 35.75 59.75 35.5C59.75 35 59.5 34.625 58.875 34.625C58.625 34.625 58.375 34.75 58.125 35L52.5 40.625C52.25 40.875 51.875 41.125 51.375 41.125H50.25V35.75C50.25 35.125 49.875 34.75 49.25 34.75C48.625 34.75 48.25 35.125 48.25 35.75V48.625C48.25 49.25 48.625 49.625 49.25 49.625C49.875 49.625 50.25 49.25 50.25 48.625V42.875H51.25C51.75 42.875 52 43 52.375 43.375L58.25 49.25C58.5 49.5 58.75 49.625 59 49.625C59.5 49.625 59.875 49.25 59.875 48.75C59.875 48.375 59.75 48.25 59.5 47.875L53.625 42ZM66 16.875C65.125 17.375 63.875 17.625 62.75 17.625C60.875 17.625 59.625 16.75 59.625 15.375C59.625 14.125 60.625 13.125 62.75 13.125C63.875 13.125 64.75 13.25 66 13.625V16.875ZM63 4.875C61.375 4.875 59.875 5.25 58.875 5.75C58.125 6.125 57.75 6.5 57.75 7.125C57.75 7.875 58.375 8.375 59 8.375C59.375 8.375 59.75 8.25 60.125 8.125C60.75 7.875 61.75 7.625 62.75 7.625C65 7.625 66 8.5 66 10.25V11.5C64.625 11.125 63.625 11 62.375 11C58.625 11 56.75 13.125 56.75 15.5C56.75 18.25 58.75 20.25 62.375 20.25C65.25 20.25 67.375 19.375 68.25 18.75C68.625 18.5 68.75 18.25 68.75 17.625V10.375C68.75 6.625 66.625 4.875 63 4.875ZM98.75 14.5C98.125 14.5 97.75 14.875 97.5 15.375C97 16.5 95.875 17.25 94.375 17.25C92.25 17.25 91 16 90.875 14.125C90.75 13.125 90.75 12 90.875 11C91 9.125 92.25 7.875 94.375 7.875C95.875 7.875 97 8.625 97.5 9.75C97.75 10.125 98.125 10.625 98.75 10.625C99.625 10.625 100.25 10.125 100.25 9.25C100.25 8.75 100.125 8.375 99.875 7.875C99 6.25 97.125 4.875 94.375 4.875C90.75 4.875 88.25 7.125 88 10.5C87.875 11.625 87.875 13.375 88 14.5C88.375 17.75 90.75 20.125 94.375 20.125C97.125 20.125 99 18.875 99.875 17.25C100.125 16.75 100.25 16.375 100.25 15.875C100.25 15 99.625 14.5 98.75 14.5ZM32 17.5L26.875 12.375L31.75 7.5C32.125 7.125 32.375 6.75 32.375 6.375C32.375 5.625 31.875 5.125 31.125 5.125C30.75 5.125 30.375 5.25 30 5.75L25 10.75C24.75 11 24.5 11.125 24 11.125H23V6.75C23 5.75 22.375 5.125 21.5 5.125C20.625 5.125 20 5.75 20 6.75V18.625C20 19.625 20.625 20.25 21.5 20.25C22.375 20.25 23 19.625 23 18.625V13.875H23.875C24.25 13.875 24.5 14 24.875 14.25L30.125 19.5C30.625 20 30.875 20.125 31.375 20.125C32.125 20.125 32.75 19.625 32.75 18.75C32.625 18.25 32.375 17.875 32 17.5ZM82.125 14.125C82 16 80.75 17.25 78.625 17.25C77.5 17.25 76.125 16.875 75.375 16.375V8.625C76 8.125 77.5 7.75 78.625 7.75C80.75 7.75 82 9 82.125 10.875C82.125 11.875 82.125 13.125 82.125 14.125ZM78.625 4.875C76 4.875 74 5.75 73.125 6.25C72.5 6.625 72.375 7 72.375 8.125V23.25C72.375 24.25 73 24.875 73.875 24.875C74.75 24.875 75.375 24.25 75.375 23.25V19.25C76.25 19.625 77.625 20 78.875 20C82.25 20 84.625 17.75 85 14.375C85.125 13.25 85.125 11.375 85 10.25C84.75 7.25 82.375 4.875 78.625 4.875ZM26.875 46.875C25.75 47.5 24.25 47.875 22.875 47.875C20.375 47.875 19 46.875 19 45C19 43.375 20.25 42.125 22.875 42.125C24.125 42.125 25.25 42.375 26.875 42.75V46.875ZM23.375 34.5C21.625 34.5 20 35 19.125 35.375C18.5 35.625 18.25 35.875 18.25 36.375C18.25 36.875 18.625 37.25 19.125 37.25C19.375 37.25 19.625 37.125 19.875 37C20.625 36.75 21.875 36.375 23.125 36.375C25.625 36.375 26.875 37.375 26.875 39.75V41.125C25.25 40.625 24.125 40.5 22.75 40.5C19 40.5 17.125 42.625 17.125 45C17.125 47.875 19.25 49.75 22.625 49.75C25.375 49.75 27.5 48.75 28.375 48.25C28.75 48 28.75 47.875 28.75 47.375V39.75C28.75 36.125 26.75 34.5 23.375 34.5ZM9 47.5H3.5V39.625H9C11.875 39.625 13.125 41.125 13.125 43.625C13.125 46.125 11.875 47.5 9 47.5ZM9.25 37.75H3.5V31.625H13.125C13.75 31.625 14.25 31.25 14.25 30.625C14.25 30 13.75 29.625 13.125 29.625H3.25C2.125 29.625 1.5 30.25 1.5 31.375V47.625C1.5 48.75 2.125 49.375 3.25 49.375H9.25C13 49.375 15.125 47.25 15.125 43.375C15.125 39.875 13 37.75 9.25 37.75ZM43.375 10.5H48.25C50.5 10.5 51.625 11.625 51.625 13.75C51.625 15.75 50.625 17 48.25 17H43.375V10.5ZM42.625 19.875H48.5C52.375 19.875 54.625 17.625 54.625 13.625C54.625 9.875 52.375 7.75 48.5 7.75H43.375V3H52.125C53.125 3 53.75 2.375 53.75 1.5C53.75 0.625 53.125 0.125 52.125 0.125H42.625C41.125 0.125 40.25 1 40.25 2.5V17.625C40.375 19.125 41.125 19.875 42.625 19.875ZM5.75 11L8.5 3.25C8.625 3 8.75 2.875 8.875 2.875C9.125 2.875 9.125 3 9.25 3.25L12 11H5.75ZM17.75 18.625C17.75 18.375 17.75 18.125 17.5 17.625L12 2.625C11.375 0.75 10.375 0 8.875 0C7.375 0 6.375 0.75 5.75 2.625L0.25 17.625C0.125 18.125 0 18.375 0 18.625C0 19.375 0.625 20 1.5 20C2.25 20 2.75 19.625 3 18.75L4.75 13.625H12.875L14.625 18.75C14.875 19.625 15.5 20 16.125 20C17.125 20 17.75 19.375 17.75 18.625Z" fill="#353535"/>
<path d="M248.192 23.5C246.192 18.375 241.067 15.5 235.692 16.5L224.442 18.5C222.567 18.875 221.317 20.625 221.692 22.5C222.067 24.375 223.817 25.625 225.692 25.25L236.942 23.25C239.567 22.75 241.317 24.375 241.942 26C242.567 27.625 242.442 30 240.192 31.375L223.692 42C222.192 43 220.317 43 218.692 42.25C217.067 41.375 216.192 39.75 216.192 38V3.375C216.192 1.5 214.692 0 212.817 0C210.942 0 209.442 1.5 209.442 3.375V38C209.442 42.375 211.692 46.25 215.567 48.25C217.317 49.25 219.317 49.75 221.192 49.75C223.442 49.75 225.567 49.125 227.567 47.875L244.067 37.25C248.442 34.125 250.192 28.625 248.192 23.5ZM190.192 16.5L178.942 18.5C177.067 18.875 175.817 20.625 176.192 22.5C176.567 24.375 178.317 25.625 180.192 25.25L191.442 23.25C194.067 22.75 195.817 24.375 196.442 26C197.067 27.625 196.942 30 194.692 31.375L178.192 42C176.692 43 174.817 43 173.192 42.25C171.567 41.375 170.692 39.75 170.692 38V11.75C170.692 7.375 168.442 3.5 164.567 1.5C160.692 -0.5 156.317 -0.375 152.567 2L111.192 28.75C106.567 31.75 104.817 37.25 106.817 42.375C108.817 47.5 113.942 50.375 119.317 49.375L155.442 42.875C157.317 42.5 158.567 40.75 158.192 38.875C157.817 37 156.067 35.75 154.192 36.125L118.067 42.625C115.442 43.125 113.692 41.5 113.067 39.875C112.442 38.25 112.567 35.875 114.817 34.5L156.192 7.625C157.692 6.625 159.567 6.625 161.192 7.375C162.817 8.25 163.692 9.875 163.692 11.625V37.875C163.692 42.25 165.942 46.125 169.817 48.125C171.567 49.125 173.567 49.625 175.442 49.625C177.692 49.625 179.817 49 181.817 47.75L198.317 37.125C202.942 34.125 204.692 28.625 202.692 23.5C200.692 18.375 195.692 15.5 190.192 16.5Z" fill="#439846"/>
</svg>
