<svg width="361" height="120" viewBox="0 0 361 120" fill="none" xmlns="http://www.w3.org/2000/svg">
<path d="M293.4 56.3L303.8 44.9H296.1L287.6 54.4V44.9H281.5V68.9H287.6V58.8L296.7 68.9H304.6L293.4 56.3Z" fill="#EF3024"/>
<path d="M270.6 53.8H262.2V44.9H256V68.9H262.2V59.4H270.6V68.9H276.8V44.9H270.6V53.8Z" fill="#EF3024"/>
<path d="M92.5 57.9C92.4 62.4 91.8 63.3 89.3 63.3V68.9H90.2C96.5 68.9 98 65.7 98.2 58.5L98.5 50.5H104.4V68.9H110.5V44.9H93L92.5 57.9Z" fill="#EF3024"/>
<path d="M125.8 52.2H121.4V44.9H115.3V68.9H126C132.7 68.9 135.1 64.6 135.1 60.5C134.9 55.1 131.6 52.2 125.8 52.2ZM125.3 63.6H121.3V57.5H125.3C127.4 57.5 128.7 58.4 128.7 60.4C128.7 62.6 127.5 63.6 125.3 63.6Z" fill="#EF3024"/>
<path d="M154.9 44.3V35.4H148.8V44.3C141.8 44.9 137 49.9 137 56.8C137 63.8 141.7 68.8 148.8 69.4V78.4H154.9V69.4C161.9 68.8 166.7 63.8 166.7 56.8C166.7 49.9 161.9 44.9 154.9 44.3ZM148.8 63.6C145.4 63.1 143.3 60.6 143.3 56.8C143.3 53.1 145.4 50.5 148.8 50V63.6ZM154.9 63.6V50.1C158.3 50.6 160.4 53.1 160.4 56.9C160.5 60.6 158.3 63.2 154.9 63.6Z" fill="#EF3024"/>
<path d="M189.7 61.5V53.4C189.7 47.5 186 43.8 179.6 43.8C173.1 43.8 169.6 47.7 169.3 51.8H175.5C175.7 50.9 176.7 49.4 179.5 49.4C181.9 49.4 183.4 50.5 183.4 53.4H177.3C171.8 53.4 168.6 56.3 168.6 61C168.6 66 172.1 69.4001 177.2 69.4001C180.9 69.4001 183 67.6 183.9 66.3C184.7 67.9 186.5 68.8 188.8 68.8H190.9V63.3C190.1 63.3 189.7 62.8 189.7 61.5ZM183.5 59.9C183.5 62.7 181.5 64.2001 179 64.2001C176.8 64.2001 175 63.4 175 61C175 58.7 176.9 58.3 178.6 58.3H183.5V59.9Z" fill="#EF3024"/>
<path d="M216 48.3H209.1V41.5H225V35.4H202.7V68.8H216C223.4 68.8 227.6 65.1 227.6 58.4C227.6 52.1 223.3 48.3 216 48.3ZM215.7 62.8H209.1V54.1H215.7C219.1 54.1 221 55.7 221 58.4C221 61.3 219.1 62.8 215.7 62.8Z" fill="#EF3024"/>
<path d="M251 61.5V53.4C251 47.5 247.3 43.8 240.9 43.8C234.4 43.8 230.9 47.7 230.6 51.8H236.8C237 50.9 238 49.4 240.8 49.4C243.2 49.4 244.7 50.5 244.7 53.4H238.6C233.1 53.4 229.9 56.3 229.9 61C229.9 66 233.4 69.4001 238.5 69.4001C242.2 69.4001 244.3 67.6 245.2 66.3C246 67.9 247.8 68.8 250.1 68.8H252.2V63.3C251.5 63.3 251 62.8 251 61.5ZM244.9 59.9C244.9 62.7 242.9 64.2001 240.4 64.2001C238.2 64.2001 236.4 63.4 236.4 61C236.4 58.7 238.3 58.3 240 58.3H244.9V59.9Z" fill="#EF3024"/>
<path d="M88.9 78.1H56.1V84.9H88.9V78.1Z" fill="#EF3024"/>
<path d="M78.5 40C77.6 37.2 76.5 35 72.8 35C69.1 35 68 37.2 67 40C56.8 68.9 56.8 68.9 56.8 68.9H63.5L65.8 62H78.8L81 68.9H88.2C88.1 68.9 88.1 68.9 78.5 40ZM67.8 56.2L72.4 42.5H72.6L76.9 56.2H67.8Z" fill="#EF3024"/>
<rect x="0.5" y="0.5" width="360" height="119" stroke="#F2F2F2"/>
</svg>
