<svg width="250" height="53" viewBox="0 0 250 53" fill="none" xmlns="http://www.w3.org/2000/svg">
<path d="M0.833333 26.3889C0.833333 12.2222 12.2222 0.833333 26.3889 0.833333C40.5556 0.833333 51.9444 12.2222 51.9444 26.3889C51.9444 40.5556 40.5556 51.9444 26.3889 51.9444C12.2222 51.9444 0.833333 40.5556 0.833333 26.3889ZM0 26.3889C0 40.8333 11.9444 52.7778 26.3889 52.7778C40.8333 52.7778 52.7778 40.8333 52.7778 26.3889C52.7778 11.9444 40.8333 0 26.3889 0C11.9444 0 0 11.9444 0 26.3889Z" fill="#1E3262"/>
<path d="M43.3333 23.6111C43.0556 23.8888 42.7778 23.8888 42.7778 24.1666C41.3889 25.2777 38.8889 26.1111 35.8333 26.9444C29.1667 28.6111 24.4445 28.8888 18.8889 30.2777C17.7778 30.5555 16.6667 30.8333 15.5556 31.3888C16.6667 31.9444 17.7778 32.4999 18.8889 32.7777C21.1111 32.2222 22.2222 31.9444 25.2778 31.3888C26.3889 31.1111 30.2778 30.5555 33.0556 29.9999C37.7778 28.8888 45 26.6666 43.3333 23.6111ZM40 17.4999C38.8889 16.9444 37.7778 16.6666 36.3889 16.1111C35.8333 16.6666 35 16.9444 33.8889 17.4999C35.5556 17.7777 36.9445 18.3333 38.3333 18.6111C38.6111 18.8888 39.7222 17.7777 40 17.4999ZM15.8334 24.1666C22.2222 22.2222 29.1667 21.6666 35.8333 19.7222C33.0556 18.8888 31.6667 18.6111 28.8889 19.1666C24.7222 19.7222 20.2778 20.5555 16.3889 21.6666C15 22.2222 6.94446 24.4444 9.16669 27.4999C9.16669 27.4999 10.5556 25.5555 15.8334 24.1666ZM11.3889 34.9999C11.3889 35.5555 11.6667 36.1111 12.5 36.6666C12.5 36.3888 12.7778 36.1111 13.0556 35.8333C12.5 35.5555 11.9445 35.2777 11.3889 34.9999ZM14.4445 34.7222C15 34.4444 15.5556 34.1666 16.1111 33.8888C15.2778 33.6111 14.1667 33.0555 13.3334 32.7777C12.7778 33.0555 12.5 33.3333 12.2222 33.6111C13.0556 33.8888 13.6111 34.1666 14.4445 34.7222ZM39.1667 21.1111C37.7778 21.6666 36.1111 22.2222 33.3333 22.7777C31.1111 23.3333 25.8334 24.1666 20 25.2777C18.3334 25.5555 13.3334 26.9444 10.8334 28.8888C11.3889 29.4444 11.9445 29.4444 12.7778 29.9999C13.8889 29.4444 15 28.6111 17.2222 28.3333C20.8333 27.4999 23.3333 26.9444 26.3889 26.3888C29.4445 25.8333 35.5556 24.7222 38.6111 23.6111C39.7222 23.3333 40.5556 22.7777 41.3889 22.2222C41.3889 21.9444 39.1667 20.8333 39.1667 21.1111ZM41.1111 19.7222C41.6667 19.9999 42.2222 20.2777 42.7778 20.5555C43.0556 19.7222 43.0556 19.1666 42.2222 18.6111C41.9445 19.1666 41.3889 19.4444 41.1111 19.7222ZM11.1111 31.3888C10.5556 31.1111 10.2778 30.8333 9.72224 30.5555C9.44447 31.1111 10 31.6666 10.5556 31.9444C10.5556 31.9444 10.8333 31.6666 11.1111 31.3888ZM38.6111 13.6111C38.6111 14.1666 38.0556 14.4444 37.7778 14.9999C38.6111 15.2777 39.7222 15.5555 40.5556 15.8333C40.2778 14.9999 39.4445 14.1666 38.6111 13.6111ZM8.33335 19.1666C15 14.7222 22.5 12.2222 35.2778 14.4444C35.8333 14.1666 36.3889 13.6111 36.6667 12.7777C33.6111 11.6666 30 11.1111 25.5556 11.3888C21.6667 11.3888 14.4445 13.0555 10.5556 15.2777L11.6667 13.8888C14.4445 12.2222 21.3889 10.2777 26.6667 9.99995C30.2778 9.99995 32.2222 9.99995 36.6667 11.3888C36.3889 10.5555 35.2778 10.2777 34.1667 9.72217C30 7.77772 21.9445 7.77772 15.5556 10.5555C16.3889 9.99995 17.2222 9.44439 18.3334 9.16661C20.5556 8.0555 23.8889 7.22217 28.3334 7.22217C31.9445 7.22217 36.1111 8.61106 38.6111 11.1111C39.1667 11.6666 39.1667 12.2222 39.4445 12.4999C41.3889 13.6111 42.5 14.4444 43.3333 15.5555C43.6111 16.1111 43.6111 16.6666 43.6111 17.4999C44.4445 18.0555 44.7222 18.3333 45.2778 18.8888C45.5556 19.4444 45.8333 19.9999 45.8333 20.2777C45.8333 20.8333 46.1111 21.6666 45.2778 22.4999C45.8333 22.7777 46.3889 23.8888 46.6667 24.1666C46.9445 25.5555 46.1111 27.2222 44.7222 28.3333C43.3334 29.7222 40 31.1111 37.2222 31.9444C31.9445 33.3333 27.2222 33.8888 23.6111 34.4444C25.2778 34.7222 27.5 35.2777 31.1111 35.2777C38.8889 35.2777 46.1111 31.6666 46.1111 31.6666C46.1111 31.6666 45.8333 32.2222 45.8333 32.4999C40.8333 35.5555 32.7778 36.6666 29.4445 36.6666C25.2778 36.3888 22.2222 35.8333 19.4445 34.9999C18.6111 35.2777 17.7778 35.5555 16.9445 35.8333C21.3889 37.7777 24.4445 38.3333 28.3334 38.6111C32.2222 38.8888 38.3333 38.0555 43.6111 36.1111C43.3334 36.3888 43.3334 36.6666 43.0556 36.9444C40.2778 38.3333 34.7222 39.7222 31.6667 39.9999C28.8889 39.9999 25.2778 39.9999 22.2222 39.4444C19.7222 38.8888 17.5 38.0555 15.2778 37.2222C15 37.4999 14.7222 37.7777 14.7222 38.3333C23.3334 42.7777 31.6667 43.0555 40.8333 39.9999L40 40.8333C29.7222 44.9999 21.9445 43.3333 15.5556 40.2777C15.2778 40.2777 15 39.9999 15 39.9999C15.5556 41.1111 20.2778 44.4444 25.5556 44.9999C29.1667 45.2777 33.6111 44.7222 36.1111 43.6111L34.4445 44.4444C33.0556 44.9999 29.7222 46.3888 25 46.1111C18.6111 45.5555 15.2778 42.7777 13.6111 41.3888C12.7778 40.8333 12.5 39.9999 12.2222 38.8888C10.8334 38.0555 10 37.4999 9.16669 36.1111C8.61113 35.5555 8.88891 34.7222 8.88891 34.1666L9.16669 33.6111C8.61113 33.0555 7.7778 32.4999 7.50002 31.9444C6.94447 30.8333 7.22224 29.9999 7.7778 29.1666C7.50002 28.6111 6.94447 28.3333 6.94447 27.7777C6.66669 27.2222 6.66669 26.6666 6.66669 26.1111C6.66669 25.2777 7.22224 24.4444 8.05558 23.6111C9.44447 21.9444 11.6667 20.8333 15.2778 19.4444C18.8889 18.3333 20.2778 18.0555 23.0556 17.4999C26.1111 16.6666 30 16.3888 33.3333 15.2777C24.4445 13.6111 15.2778 15.2777 7.7778 20.2777L8.33335 19.1666Z" fill="#1E3262"/>
<path d="M86.1111 21.6667L87.2222 28.6111H85.2778L86.1111 21.6667ZM78.0555 38.0556H83.6111L84.1666 34.1667H87.7778L88.3333 38.0556H93.8889L89.1666 15H82.5L78.0555 38.0556Z" fill="#1E3262"/>
<path d="M99.1667 23.8889C100 23.8889 101.667 23.3333 101.667 21.6667C101.667 19.7222 99.7222 19.4445 99.4444 19.4445C98.8889 19.4445 97.7778 19.4445 96.3889 20V15C98.3333 14.4445 99.4444 14.4445 101.111 14.4445C105.556 14.4445 107.5 17.5 107.5 20.5556C107.5 23.6111 105.833 25.2778 104.167 25.8333V26.1111C105.833 26.6667 107.778 28.0556 107.778 31.6667C107.778 36.1111 104.722 38.3333 100.833 38.3333C98.8889 38.3333 97.5 38.0556 95.8333 37.2222V32.5C97.2222 33.0556 98.3333 33.3333 99.4444 33.3333C101.111 33.3333 101.944 31.9445 101.944 31.1111C101.944 29.7222 101.111 28.8889 99.1667 28.8889H96.9444V23.8889H99.1667Z" fill="#1E3262"/>
<path d="M110 14.7222H124.722V38.0555H119.444V20.2777H115.556V38.0555H110V14.7222Z" fill="#1E3262"/>
<path d="M133.056 20H134.444C135.556 20 136.389 20.8333 136.389 22.7778C136.389 25.2778 135 25.5556 134.444 25.5556H133.056V20ZM127.778 38.0556H133.056V30.5556H134.722C140 30.5556 141.667 25.8333 141.667 22.7778C141.667 19.7222 139.722 15 134.722 15H127.778V38.0556Z" fill="#1E3262"/>
<path d="M151.944 32.5C150 32.5 149.167 30.2778 149.167 26.1111C149.167 21.9445 150 19.7222 151.944 19.7222C153.889 19.7222 154.722 21.9445 154.722 26.1111C154.722 30.2778 153.611 32.5 151.944 32.5ZM151.944 38.3333C158.333 38.3333 160.556 32.5 160.556 26.3889C160.556 20.2778 158.333 14.4445 151.944 14.4445C145.556 14.4445 143.333 20.2778 143.333 26.3889C143.333 32.5 145.556 38.3333 151.944 38.3333Z" fill="#1E3262"/>
<path d="M188.889 33.3333V28.0556H189.722C190.278 28.0556 191.944 28.0556 191.944 30.5556C191.944 33.0556 190.278 33.3333 189.722 33.3333H188.889ZM183.611 38.0556H190C191.389 38.0556 197.222 37.5 197.222 30.5556C197.222 24.7222 192.778 23.6111 189.722 23.6111H188.889V20.5556H196.111V15H183.889V38.0556H183.611Z" fill="#1E3262"/>
<path d="M216.667 14.7222H221.667V23.0555H225.556V14.7222H230.833V38.0555H225.556V28.6111H221.667V38.0555H216.667V14.7222Z" fill="#1E3262"/>
<path d="M234.444 14.7222H239.722L239.444 23.0555H240.833L243.611 14.7222H249.444L245.278 25.8333L250 38.0555H243.889L240.833 28.6111H239.444L239.722 38.0555H234.444V14.7222Z" fill="#1E3262"/>
<path d="M67.7778 14.7222H78.6111V20.5555H73.0555V38.0555H67.7778V14.7222Z" fill="#1E3262"/>
<path d="M162.778 14.7222H167.5L171.389 20.2777L175.556 14.7222H180V38.0555H174.722V23.8888L171.389 27.7777L168.333 23.8888V38.0555H162.778V14.7222Z" fill="#1E3262"/>
<path d="M206.389 21.9444L207.5 28.8889H205.556L206.389 21.9444ZM198.333 38.0556H203.889L204.444 34.1667H208.056L208.611 38.0556H214.167L209.444 15H202.778L198.333 38.0556Z" fill="#1E3262"/>
</svg>
