<svg width="304" height="81" viewBox="0 0 304 81" fill="none" xmlns="http://www.w3.org/2000/svg">
<path d="M178.5 38.6H168.1V80.9H177.3V53H177.9L187.7 69.1H192.6L202.4 53H203V80.9H212.3V38.6H202.1L190.4 57.8L178.5 38.6Z" fill="#BB0032"/>
<path d="M231.6 38.6H222.2V80.9H231.6V62.8H236.2L249.1 80.9H261.3L244 58.3L259.7 38.5H248L236 54.1L231.4 54.6V38.6H231.6Z" fill="#BB0032"/>
<path d="M301.7 38.6H268.1V80.9H287.2C289.6 80.9 291.8 80.6 293.8 80C295.8 79.4 297.6 78.5 299 77.4C300.5 76.2 301.6 74.8 302.5 73.1C303.3 71.3 303.7 69.4 303.7 67.2C303.7 65 303.3 63 302.5 61.2C301.6 59.5 300.5 58.1 299.1 57C297.6 55.8 295.9 55 293.8 54.5C291.8 53.9 289.6 53.7 287.2 53.7H277.5V47.1H293.4L301.7 38.6ZM277.5 72.4V61.9H287.5C289.7 61.9 291.3 62.3 292.5 63.3C293.7 64.2 294.3 65.4 294.3 67.1C294.3 68.7 293.7 69.9 292.5 70.9C291.4 71.8 289.6 72.3 287.3 72.3H277.5V72.4Z" fill="#BB0032"/>
<path d="M110.2 38.6L89.2 59.7L78.8 49.2L89.3 38.6H68.5H68.3L57.9 49.2L89.4 81L116.3 53.7H132.4L147.3 38.6H110.2Z" fill="#BB0032"/>
<path d="M93.8 80.5L96.8 77.5L117.6 56.6H147.4L132.4 71.5H123.6L114.8 80.5H93.8Z" fill="#BB0032"/>
</svg>
