<svg width="250" height="57" viewBox="0 0 250 57" fill="none" xmlns="http://www.w3.org/2000/svg">
<path d="M57.6 7.19995H69.1C74.9 7.19995 78.9 12 78.9 16.7C78.9 21.5 75 26.2999 69.1 26.2999H61.9V34H57.5V7.19995H57.6ZM68.7 22.2C72.5 22.2 74.5 19.3 74.5 16.7C74.5 13.9 72.5 11.2 68.7 11.2H62V22.3H68.7V22.2Z" fill="#323E48"/>
<path d="M80.2 24.2C80.2 18.5 84.1 14 90.3 14C96.6 14 99.6 19.3 99.6 24.5V25.5H84.6C85.2 28.9 88.1 30.8 92 30.8C94.5 30.8 96.5 30.1 98.3 29V32.7C96.7 33.9 94.1 34.6 91.1 34.6C85 34.6 80.2 30.5 80.2 24.2ZM95.2 22.2C95.2 20.2 93.6 17.5 90.1 17.5C86.7 17.5 84.8 19.8 84.7 22.2H95.2Z" fill="#323E48"/>
<path d="M103.4 14.5H107.8V22.1H117.7V14.5H122.1V34H117.7V25.8H107.8V34H103.4V14.5Z" fill="#323E48"/>
<path d="M125.8 24.2C125.8 18.5 129.7 14 135.9 14C142.2 14 145.2 19.3 145.2 24.5V25.5H130.2C130.8 28.9 133.7 30.8 137.6 30.8C140.1 30.8 142.1 30.1 143.9 29V32.7C142.3 33.9 139.7 34.6 136.7 34.6C130.6 34.6 125.8 30.5 125.8 24.2ZM140.8 22.2C140.8 20.2 139.2 17.5 135.7 17.5C132.3 17.5 130.4 19.8 130.3 22.2H140.8Z" fill="#323E48"/>
<path d="M147.7 24.2C147.7 18.1 152.5 14 158.4 14C160.7 14 162.5 14.4 164.2 15.3V19C162.4 18.1 160.8 17.7 158.9 17.7C155.1 17.7 151.9 20.3 151.9 24.3C151.9 28.3 155 30.9 158.9 30.9C161.1 30.9 162.8 30.5 164.4 29.4V33C162.5 34 160.6 34.6 158.1 34.6C152.5 34.6 147.7 30.4 147.7 24.2Z" fill="#323E48"/>
<path d="M166.6 24.2C166.6 18.1 171.4 14 177.3 14C179.6 14 181.4 14.4 183.1 15.3V19C181.3 18.1 179.7 17.7 177.8 17.7C174 17.7 170.8 20.3 170.8 24.3C170.8 28.3 173.9 30.9 177.8 30.9C180 30.9 181.7 30.5 183.3 29.4V33C181.4 34 179.5 34.6 177 34.6C171.6 34.6 166.6 30.4 166.6 24.2Z" fill="#323E48"/>
<path d="M207.4 30.4V33.6C206.8 34 205.8 34.2 204.9 34.2C203 34.2 201.4 33.3 200.8 31.4C199.3 33 197 34.5 193.6 34.5C189.5 34.5 186.3 32.2 186.3 27.9C186.3 23.5 189.5 22.2 193.7 22.2C196.6 22.2 200.4 22.2 200.4 22.2V21.9C200.4 18.5 197.6 17.7 194.7 17.7C192.4 17.7 190 18.6 188.6 19.5V15.7C190.1 15 192.3 14.1 195.8 14.1C201.1 14.1 204.9 16.6 204.9 21.5V28.8C204.9 30 205.6 30.7 206.5 30.7C206.5 30.7 207 30.7 207.4 30.4ZM200.2 25.6C200.2 25.6 197.1 25.6 195.1 25.6C192.3 25.6 190.4 26.2 190.4 28.1C190.4 30.3 192.3 31 194.6 31C196.9 31 199.1 29.8 200.1 28.7V25.6H200.2Z" fill="#323E48"/>
<path d="M210.5 14.5H214.9V22.1H224.8V14.5H229.2V34H224.8V25.8H214.9V34H210.5V14.5Z" fill="#323E48"/>
<path d="M232.8 24.2C232.8 18.1 237.6 14 243.5 14C245.8 14 247.6 14.4 249.3 15.3V19C247.5 18.1 245.9 17.7 244 17.7C240.2 17.7 237 20.3 237 24.3C237 28.3 240.1 30.9 244 30.9C246.2 30.9 247.9 30.5 249.5 29.4V33C247.6 34 245.7 34.6 243.2 34.6C237.6 34.6 232.8 30.4 232.8 24.2Z" fill="#323E48"/>
<path d="M57.6 44.5H59.6V48.3L63.1 44.5H65.6L61.5 48.9L66.3 54.2H63.8L59.7 49.8V54.2H57.5V44.5H57.6Z" fill="#323E48"/>
<path d="M68.9 44.5H73.1C75.1 44.5 76.5 45.7 76.5 47.4C76.5 49.2 75.2 50.3 73.1 50.3H71V54.1H69V44.5H68.9ZM73 48.6C73.9 48.6 74.5 48.2 74.5 47.4C74.5 46.6 73.9 46.2 73 46.2H71V48.5H73V48.6Z" fill="#323E48"/>
<path d="M79.5 44.5H86.5V46.3H81.4V48.2H85.5V50H81.4V52.5H86.8V54.3H79.5V44.5Z" fill="#323E48"/>
<path d="M89.4 52.4H90.3C91.2 51.1 91.6 49.3 91.6 46.1V44.6H98.3V52.5H99.6V56.3H97.7V54.4H91.1V56.3H89.2V52.4H89.4ZM96.4 52.4V46.3H93.6C93.6 48.3 93.5 50.4 92.6 52.4H96.4Z" fill="#323E48"/>
<path d="M102.7 44.5H104.7V50.8L109.4 44.5H111.2V54.1H109.3V47.8L104.3 54.1H102.7V44.5Z" fill="#323E48"/>
<path d="M122 44.5V46.3H118.9V54.2H116.9V46.3H113.8V44.5H122Z" fill="#323E48"/>
<path d="M6.89998 44.5H0.599976V17.5C0.599976 8.29995 8.19998 0.699951 17.4 0.699951H38.1V17.2999C38.1 26.5999 30.5 34.0999 21.3 34.0999H10.8L13.1 27.7999H21.1C26.9 27.7999 31.6 23.0999 31.6 17.2999V6.99995H17.2C11.4 6.99995 6.69998 11.7 6.69998 17.5V44.5H6.89998Z" fill="url(#paint0_radial)"/>
<defs>
<radialGradient id="paint0_radial" cx="0" cy="0" r="1" gradientUnits="userSpaceOnUse" gradientTransform="translate(1.85428 42.7782) scale(36.3452)">
<stop stop-color="#D6005E"/>
<stop offset="1" stop-color="#E3448A"/>
</radialGradient>
</defs>
</svg>
