<svg width="391" height="74" viewBox="0 0 391 74" fill="none" xmlns="http://www.w3.org/2000/svg">
<path d="M102.164 45.5139C103.778 47.2893 105.715 48.5804 108.136 49.5488C110.557 50.5172 113.3 51.0014 116.69 51.0014C118.304 51.0014 119.918 50.84 121.209 50.6786C122.661 50.5172 123.791 50.1944 124.921 49.7102C126.051 49.3874 127.019 48.9032 127.988 48.5804C128.795 48.0962 129.602 47.7734 130.247 47.4507L129.117 45.0297C128.472 45.3525 127.826 45.6753 127.181 45.9981C126.535 46.3209 125.889 46.4823 125.082 46.8051C124.275 46.9665 123.468 47.2893 122.5 47.2893C121.532 47.4507 120.402 47.4507 119.111 47.4507C116.69 47.4507 114.592 46.9665 113.139 45.9981C111.525 45.0297 110.395 43.7385 109.427 42.286C108.62 40.672 107.974 38.7352 107.652 36.6371C107.329 34.3775 107.167 32.118 107.167 29.5356C107.167 27.5989 107.329 25.5007 107.49 23.4026C107.652 21.3044 108.136 19.529 108.943 17.9151C109.75 16.3011 110.718 15.0099 112.171 13.8802C113.623 12.9118 115.56 12.2662 117.981 12.2662C120.24 12.2662 122.177 12.9118 123.791 14.0416C125.405 15.1713 126.374 17.1081 126.858 19.529H129.44V11.6206C128.633 11.2978 127.826 10.975 126.858 10.6522C125.889 10.3294 124.921 10.168 123.791 10.0067C122.661 9.84525 121.693 9.84525 120.563 9.68386C119.595 9.68386 118.627 9.52246 117.82 9.52246C114.269 9.52246 111.364 10.0067 108.781 10.975C106.36 11.9434 104.262 13.396 102.648 15.1713C101.034 16.9467 99.9045 19.2063 99.0975 21.7886C98.2906 24.3709 97.9678 27.4375 97.9678 30.6654C97.9678 33.7319 98.2906 36.6371 99.0975 39.058C99.5817 41.8018 100.712 43.8999 102.164 45.5139Z" fill="#1A9F29"/>
<path d="M260.01 49.7101C261.947 49.5487 263.884 48.9031 265.336 48.0962C266.95 47.1278 268.241 45.8366 269.048 44.0613C270.017 42.2859 270.501 39.8649 270.501 36.7984C270.501 34.5389 270.178 32.7635 269.533 31.1495C268.887 29.5356 267.919 28.4058 266.466 27.276C265.014 26.3076 263.238 25.662 260.979 25.1779C258.719 24.6937 255.975 24.5323 252.747 24.5323H249.358V15.0099C249.358 14.0415 249.519 13.3959 250.004 13.0731C250.488 12.7503 251.295 12.7503 252.586 12.7503H257.428C258.88 12.7503 260.172 12.7503 261.14 12.9117C262.108 13.0731 262.915 13.2345 263.399 13.7187C264.045 14.2029 264.529 14.8485 264.852 15.6554C265.175 16.4624 265.659 17.5922 265.982 19.0448H268.08V10.168H240.643H238.383V11.4591C238.544 11.4591 238.706 11.6205 239.19 11.6205C239.674 11.7819 239.997 11.9433 240.158 12.1047C240.32 12.2661 240.481 12.5889 240.643 13.0731C240.643 13.5573 240.804 14.0415 240.804 14.6871V22.7569V37.444V45.5138C240.804 46.1594 240.804 46.805 240.643 47.1278C240.643 47.612 240.481 47.9348 240.158 48.0962C239.997 48.2576 239.674 48.5804 239.19 48.5804C238.706 48.7418 238.544 48.7418 238.383 48.7418V50.0329H253.393C255.814 50.0329 257.912 50.0329 260.01 49.7101ZM250.165 46.805C249.842 46.4822 249.681 46.1594 249.681 45.6752C249.681 45.191 249.519 44.5454 249.519 43.7385V26.9532H252.909C255.975 26.9532 258.235 27.7602 259.526 29.3742C260.817 30.9881 261.463 33.5705 261.463 37.1212C261.463 39.5422 261.301 41.3175 260.817 42.7701C260.333 44.2226 259.849 45.191 259.042 45.998C258.235 46.6436 257.428 47.1278 256.621 47.4506C255.652 47.612 254.684 47.7734 253.716 47.7734C252.747 47.612 251.94 47.612 251.456 47.4506C250.972 47.2892 250.488 47.1278 250.165 46.805Z" fill="#1A9F29"/>
<path d="M217.563 48.7418C217.401 48.7418 217.24 48.5804 216.756 48.5804C216.271 48.419 215.949 48.2576 215.787 48.0962C215.626 47.9348 215.464 47.612 215.303 47.1278C215.303 46.6436 215.142 46.1594 215.142 45.5138V34.3775H219.177C221.275 34.3775 223.211 34.2161 225.148 33.8933C227.085 33.5705 228.699 32.9249 230.151 32.1179C231.604 31.1495 232.734 30.0197 233.541 28.2444C234.348 26.6304 234.832 24.3709 234.832 21.6271C234.832 19.0448 234.348 16.9466 233.702 15.4941C232.895 14.0415 231.765 12.7503 230.474 11.9433C229.183 11.1363 227.569 10.6522 225.794 10.4908C224.018 10.3294 222.243 10.168 220.306 10.168H206.749H204.49V11.4591C204.651 11.4591 204.812 11.6205 205.297 11.6205C205.781 11.7819 206.103 11.9433 206.265 12.1047C206.426 12.2661 206.588 12.5889 206.749 13.0731C206.749 13.5573 206.91 14.0415 206.91 14.6871V45.3524C206.91 45.998 206.91 46.6436 206.749 46.9664C206.749 47.4506 206.588 47.7734 206.265 47.9348C206.103 48.0962 205.781 48.419 205.297 48.419C204.812 48.5804 204.651 48.5804 204.49 48.5804V49.8715H217.563V48.7418ZM215.303 14.6871C215.303 14.3643 215.303 14.0415 215.464 13.7187C215.464 13.3959 215.626 13.2345 215.787 13.0731C215.949 12.9117 216.271 12.7503 216.756 12.7503C217.24 12.7503 217.724 12.5889 218.531 12.5889C219.499 12.5889 220.468 12.7503 221.436 12.9117C222.404 13.2345 223.05 13.7187 223.857 14.3643C224.503 15.0099 224.987 15.9782 225.471 17.108C225.794 18.2378 225.955 19.6904 225.955 21.3043C225.955 24.6937 225.471 27.276 224.503 29.0514C223.534 30.8267 221.759 31.7951 219.338 31.7951H215.303V14.6871Z" fill="#1A9F29"/>
<path d="M199.163 40.8333H196.581C196.258 42.4473 195.935 43.5771 195.612 44.5454C195.29 45.5138 194.967 46.1594 194.321 46.6436C193.837 47.1278 193.03 47.4506 192.062 47.4506C191.093 47.612 189.802 47.612 188.027 47.612C186.413 47.612 185.122 47.612 184.315 47.4506C183.346 47.2892 182.701 47.1278 182.216 46.805C181.732 46.4822 181.41 45.998 181.41 45.5138C181.248 44.8682 181.248 44.2227 181.248 43.2543V30.6653H186.574C187.058 30.6653 187.543 30.6653 188.188 30.6653C188.834 30.6653 189.479 30.8267 190.125 30.8267C190.771 30.8267 191.416 30.9881 192.062 31.1495C192.707 31.3109 193.191 31.4723 193.676 31.7951V26.6304C193.191 26.9532 192.707 27.1146 192.062 27.276C191.416 27.4374 190.771 27.5988 190.125 27.5988C189.479 27.7602 188.834 27.7602 188.188 27.7602C187.543 27.7602 187.058 27.7602 186.574 27.7602H181.248V14.5257C181.248 13.7187 181.41 13.0731 181.571 12.7503C181.894 12.4275 182.378 12.4275 183.185 12.4275H187.543C188.995 12.4275 190.286 12.4275 191.255 12.5889C192.223 12.7503 193.03 12.9117 193.514 13.3959C194.16 13.8801 194.644 14.5257 194.967 15.3327C195.29 16.1396 195.774 17.2694 196.097 18.722H198.195V10.168H172.694H170.435V11.4591C170.596 11.4591 170.757 11.6205 171.242 11.6205C171.726 11.7819 172.048 11.9433 172.21 12.1047C172.371 12.2661 172.533 12.5889 172.694 13.0731C172.694 13.5573 172.856 14.0415 172.856 14.6871V45.3524C172.856 45.998 172.856 46.6436 172.694 46.9664C172.694 47.4506 172.533 47.7734 172.21 47.9348C172.048 48.0962 171.726 48.419 171.242 48.419C170.757 48.5804 170.596 48.5804 170.435 48.5804V49.8715H199.163V40.8333Z" fill="#1A9F29"/>
<path d="M155.264 49.7101C157.2 49.5487 159.137 48.9031 160.59 48.0962C162.204 47.1278 163.495 45.8366 164.463 44.0613C165.432 42.2859 165.916 39.8649 165.916 36.7984C165.916 34.5389 165.593 32.7635 164.947 31.1495C164.302 29.5356 163.334 28.4058 161.881 27.276C160.428 26.3076 158.653 25.662 156.393 25.1779C154.134 24.6937 151.39 24.5323 148.162 24.5323H144.773V15.0099C144.773 14.0415 144.934 13.3959 145.418 13.0731C145.903 12.7503 146.71 12.7503 148.001 12.7503H152.843C154.295 12.7503 155.586 12.7503 156.555 12.9117C157.523 13.0731 158.33 13.2345 158.814 13.7187C159.46 14.2029 159.944 14.8485 160.267 15.6554C160.59 16.4624 161.074 17.5922 161.397 19.0448H163.495V10.168H136.057H133.798V11.4591C133.959 11.4591 134.121 11.6205 134.605 11.6205C135.089 11.7819 135.412 11.9433 135.573 12.1047C135.735 12.2661 135.896 12.5889 136.057 13.0731C136.057 13.5573 136.219 14.0415 136.219 14.6871V15.4941V22.5955V37.1212V43.0929C136.219 43.0929 136.219 43.0929 136.219 43.2543V45.3524C136.219 45.998 136.219 46.4822 136.057 46.9664C136.057 47.4506 135.896 47.7734 135.573 47.9348C135.412 48.0962 135.089 48.419 134.605 48.419C134.121 48.5804 133.959 48.5804 133.798 48.5804V50.0329H148.808C151.229 50.0329 153.165 50.0329 155.264 49.7101ZM145.418 46.805C145.096 46.4822 144.934 46.1594 144.934 45.6752C144.934 45.191 144.773 44.5454 144.773 43.7385V26.9532H148.162C151.229 26.9532 153.488 27.7602 154.779 29.3742C156.071 30.9881 156.716 33.5705 156.716 37.1212C156.716 39.5422 156.555 41.3175 156.071 42.7701C155.586 44.2226 155.102 45.191 154.295 45.998C153.488 46.6436 152.681 47.1278 151.874 47.4506C150.906 47.612 149.938 47.7734 148.969 47.7734C148.001 47.612 147.355 47.612 146.71 47.4506C146.225 47.2892 145.741 47.1278 145.418 46.805Z" fill="#1A9F29"/>
<path d="M390.257 61.3311H97.6454V65.2046H390.257V61.3311Z" fill="#1A9F29"/>
<path d="M366.855 35.0235C367.662 36.1533 368.307 37.1217 369.114 38.09C369.76 39.0584 370.567 40.0268 371.212 40.9952C371.858 41.9636 372.504 42.9319 373.311 43.9003C374.118 45.0301 374.763 45.9985 375.409 47.1282C376.054 48.0966 376.539 49.2264 377.023 50.1948L390.58 50.3562C389.127 48.9036 387.836 47.451 386.384 45.9985C385.093 44.5459 383.963 43.2547 383.156 42.4477C381.865 40.9952 380.735 39.704 379.766 38.5742C378.637 37.2831 377.668 36.1533 376.7 35.0235C375.731 33.8937 374.763 32.6025 373.956 31.4728C373.149 30.343 372.181 28.8904 371.374 27.5993L372.019 26.7923C372.988 25.5011 374.118 24.2099 375.409 22.596C376.7 20.982 377.991 19.368 379.444 17.9155C380.896 16.3015 382.187 14.8489 383.64 13.5577C385.093 12.2666 386.222 11.2982 387.352 10.4912H377.991C377.668 11.2982 377.184 12.2666 376.539 13.3964C375.893 14.5261 375.247 15.8173 374.279 17.1085C373.472 18.3996 372.504 19.8522 371.697 21.3048C370.728 22.7574 369.921 24.0485 368.953 25.3397C367.984 26.6309 367.178 27.922 366.371 28.8904C365.564 30.0202 364.918 30.8272 364.434 31.6342C365.241 32.7639 366.048 33.8937 366.855 35.0235Z" fill="#1A9F29"/>
<path d="M365.725 48.7418C365.564 48.7418 365.402 48.5804 364.918 48.5804C364.434 48.419 364.111 48.2576 363.95 48.0962C363.788 47.9348 363.627 47.612 363.465 47.1278C363.465 46.6436 363.304 46.1594 363.304 45.5138V14.8485C363.304 14.2029 363.304 13.5573 363.465 13.2345C363.465 12.7503 363.627 12.4275 363.95 12.2661C364.111 12.1047 364.434 11.9433 364.918 11.7819C365.402 11.6205 365.564 11.6205 365.725 11.6205V10.168H354.911H352.652V11.4591C352.813 11.4591 352.975 11.6205 353.459 11.6205C353.943 11.7819 354.266 11.9433 354.427 12.1047C354.589 12.2661 354.75 12.5889 354.911 13.0731C354.911 13.5573 355.073 14.0415 355.073 14.6871V45.3524C355.073 45.998 355.073 46.6436 354.911 46.9664C354.911 47.4506 354.75 47.7734 354.427 47.9348C354.266 48.0962 353.943 48.419 353.459 48.419C352.975 48.5804 352.813 48.5804 352.652 48.5804V49.8715H365.725V48.7418Z" fill="#1A9F29"/>
<path d="M278.893 45.1908C279.377 42.9312 280.346 39.7033 281.637 35.6684H294.387L296.163 40.8331C296.97 43.0926 297.615 45.0294 297.938 46.6433C298.422 48.2573 298.745 49.3871 298.745 50.1941H308.913C308.429 49.3871 307.944 48.2573 307.299 46.9661C306.653 45.6749 305.846 43.7382 305.039 41.3172L295.84 15.171C295.356 14.0412 295.194 13.0728 295.033 12.2659C294.871 11.4589 294.871 10.8133 294.71 10.3291H283.251V11.6203C283.412 11.6203 283.574 11.7817 284.058 11.7817C284.542 11.9431 284.865 12.1045 285.026 12.2659C285.188 12.4273 285.349 12.75 285.51 13.2342C285.51 13.557 285.51 13.7184 285.51 14.0412C285.51 15.0096 285.349 15.978 285.026 16.6236L278.57 32.4404C277.441 35.3456 276.311 37.9279 275.504 39.8647C274.697 41.8014 273.89 43.5768 273.406 44.868C272.76 46.1591 272.276 47.2889 271.792 48.0959C271.307 48.9029 270.985 49.5485 270.662 50.1941H277.925C278.086 49.0643 278.409 47.4503 278.893 45.1908ZM288.093 16.785L293.419 32.9246H282.444L288.093 16.785Z" fill="#1A9F29"/>
<path d="M324.246 48.7418H323.923C323.762 48.7418 323.6 48.5804 323.116 48.5804C322.632 48.419 322.309 48.2576 322.148 48.0962C321.987 47.9348 321.825 47.612 321.664 47.1278C321.664 46.6436 321.502 46.1594 321.502 45.5138V30.1812H336.996V45.3524C336.996 45.998 336.996 46.6436 336.835 46.9664C336.835 47.4506 336.674 47.7734 336.351 47.9348C336.19 48.0962 335.867 48.419 335.383 48.419C334.898 48.5804 334.737 48.5804 334.575 48.5804V49.8715H347.649V48.5804C347.487 48.5804 347.326 48.419 346.842 48.419C346.357 48.2576 346.035 48.0962 345.873 47.9348C345.712 47.7734 345.55 47.4506 345.389 46.9664C345.389 46.4822 345.228 45.998 345.228 45.3524V37.444V37.1212V22.5955V22.4341V14.5257C345.228 13.8801 345.228 13.2345 345.389 12.9117C345.389 12.4275 345.55 12.1047 345.873 11.9433C346.035 11.7819 346.357 11.6205 346.842 11.4591C347.326 11.2977 347.487 11.2977 347.649 11.2977V10.168H336.835H334.898V11.4591C335.06 11.4591 335.221 11.6205 335.705 11.6205C336.19 11.7819 336.512 11.9433 336.674 12.1047C336.835 12.2661 336.996 12.5889 337.158 13.0731C337.158 13.5573 337.319 14.0415 337.319 14.6871V27.4374H321.825V14.6871C321.825 14.0415 321.825 13.3959 321.987 13.0731C321.987 12.5889 322.148 12.2661 322.471 12.1047C322.632 11.9433 322.955 11.7819 323.439 11.6205C323.923 11.4591 324.085 11.4591 324.246 11.4591V10.168H313.433H311.173V11.4591C311.334 11.4591 311.496 11.6205 311.98 11.6205C312.464 11.7819 312.787 11.9433 312.948 12.1047C313.11 12.2661 313.271 12.5889 313.433 13.0731C313.433 13.5573 313.594 14.0415 313.594 14.6871V15.6554V43.2543V43.4157V45.5138C313.594 46.1594 313.594 46.6436 313.433 47.1278C313.433 47.612 313.271 47.9348 312.948 48.0962C312.787 48.2576 312.464 48.5804 311.98 48.5804C311.496 48.7418 311.334 48.7418 311.173 48.7418V50.0329H324.246V48.7418Z" fill="#1A9F29"/>
<path d="M71.0146 14.3639C70.2076 13.2342 69.4006 12.1044 68.5937 10.9746L23.8868 36.6367L2.25964 24.2091C1.77545 25.6617 1.45266 26.9529 1.29126 28.4054L24.0482 41.4786L71.0146 14.3639Z" fill="#1A9F29"/>
<path d="M23.8868 46.3206L0.64565 32.9247C0.484253 33.7316 0.484253 34.7 0.484253 35.507C0.484253 56.6499 17.5923 73.9194 38.8966 73.9194C60.0396 73.9194 77.309 56.8114 77.309 35.507C77.309 29.2125 75.8565 23.2409 73.1127 18.0762L23.8868 46.3206Z" fill="#1A9F29"/>
<path d="M65.5271 7.74694C64.3973 6.61716 63.2675 5.81018 62.1378 4.8418L23.8868 26.9531L5.48754 16.4624C4.84195 17.5921 4.19637 18.8833 3.55078 20.1745L23.7254 31.795L65.5271 7.74694Z" fill="#1A9F29"/>
<path d="M58.2642 2.25955C56.8116 1.45257 55.3591 0.645586 53.7451 0L23.8867 17.2694L10.4908 9.6838C9.52243 10.6522 8.71545 11.782 7.74707 12.9117L23.7253 22.1113L58.2642 2.25955Z" fill="#1A9F29"/>
</svg>
