<svg width="250" height="59" viewBox="0 0 250 59" fill="none" xmlns="http://www.w3.org/2000/svg">
<path d="M250 0H0V58.5H250V0Z" fill="#FFDD2D"/>
<path d="M27.9 24.7H19.4V19.5H42.5V24.7H34.1V39H28L27.9 24.7Z" fill="black"/>
<path d="M66.1 19.5V39H60.2V27.7L49.9 39H44.7V19.5H50.6V30.9L60.8 19.5H66.1Z" fill="black"/>
<path d="M76.4 39H70.5V19.5H76.4V26.7H85.9V19.5H91.8V39H85.9V31.8H76.4V39Z" fill="black"/>
<path d="M96.1 39V19.5H102V24.7H108.1C109.6 24.6 111 24.8 112.4 25.2C115.2 26.1 117 28.8 116.8 31.7C116.9 34.9 114.8 37.7 111.7 38.5C110.5 38.8 109.2 39 108 39H96.1ZM102.1 34.3H107.2C108 34.4 108.8 34.3 109.5 34C110.4 33.6 111 32.7 111 31.8C111 30.8 110.4 30 109.4 29.7C108.7 29.5 107.9 29.4 107.1 29.4H102L102.1 34.3Z" fill="black"/>
<path d="M125.7 39H119.8V19.5H125.7V26.9H127.3L134.5 19.6H142L132.5 28.9L142.4 39.1H134.5L127.4 31.7H125.8L125.7 39Z" fill="black"/>
<path d="M167.4 29.3C167.4 35.1 162.6 39.6 154.7 39.6C146.8 39.6 141.9 35.1 141.9 29.3C141.9 23.5 146.7 19 154.7 19C162.7 19 167.4 23.5 167.4 29.3ZM161.2 29.3C161.2 26.1 158.6 23.8 154.7 23.8C150.8 23.8 148.2 26.1 148.2 29.3C148.2 32.5 150.7 34.8 154.7 34.8C158.7 34.8 161.2 32.5 161.2 29.3Z" fill="black"/>
<path d="M199 29.2C199 34.8 194.5 37.7 187 37.8V39.8H181.1V37.8C173.6 37.6 169.2 34.7 169.2 29.2C169.2 23.7 173.7 20.5 181.1 20.3V18.4H187V20.4C194.5 20.5 199 23.7 199 29.2ZM181.1 24.6C177 24.8 175.2 26.6 175.2 29.3C175.2 32 177 33.6 181.1 33.8V24.6ZM192.9 29.2C192.9 26.6 191.1 24.7 187 24.5V33.6C191.1 33.5 192.9 31.9 192.9 29.2Z" fill="black"/>
<path d="M230.5 29.2C230.5 34.8 226 37.7 218.5 37.8V39.8H212.6V37.8C205.1 37.6 200.7 34.7 200.7 29.2C200.7 23.7 205.2 20.5 212.6 20.3V18.4H218.5V20.4C226 20.5 230.5 23.7 230.5 29.2ZM212.6 24.6C208.5 24.8 206.7 26.6 206.7 29.3C206.7 32 208.5 33.6 212.6 33.8V24.6ZM224.4 29.2C224.4 26.6 222.6 24.7 218.5 24.5V33.6C222.7 33.5 224.4 31.9 224.4 29.2Z" fill="black"/>
</svg>
