<svg width="361" height="120" viewBox="0 0 361 120" fill="none" xmlns="http://www.w3.org/2000/svg">
<path d="M164.38 59.6801H158.37L152.36 73.8601L146.45 59.6801H143.33H140.27L134.47 73.4301L133.07 76.7101H134.47H138.93L140.27 73.1701H143.33H146.39L147.73 76.7101H157.02L161.42 64.4101L165.71 76.7101H170.87H171.62L170.87 74.9901L164.38 59.6801ZM143.33 69.3001H141.61L143.33 64.4701V64.5201L145.1 69.3001H143.33Z" fill="#00377B"/>
<path d="M170.88 64.36C170.45 65.54 170.18 66.88 170.18 68.44C170.18 69.78 170.45 71.02 170.88 72.15C172.06 74.94 174.59 76.71 177.59 76.71H185.16V72.47H180.27C177.32 72.47 175.7 71.83 175.7 68.34C175.7 64.8 177.31 63.94 180.27 63.94H185.16V59.7H177.64C174.64 59.68 172.06 61.35 170.88 64.36Z" fill="#00377B"/>
<path d="M240.52 55.23H239.34V80.9H240.52V55.23Z" fill="#00377B"/>
<path d="M134.47 70.0501C135.87 68.4401 135.87 66.2401 135.87 65.5401C135.87 64.8401 135.87 62.8001 134.47 61.3001C133.61 60.3901 132.27 59.6901 130.01 59.6901H127.22H118.63V76.7101H124.11V71.7701H127.22H130.01C132.27 71.7701 133.61 71.0101 134.47 70.0501ZM128.08 67.5801H127.22H124.11V63.8701H127.22H128.13C128.72 63.8701 130.33 63.8701 130.33 65.6401C130.34 67.5801 128.72 67.5801 128.08 67.5801Z" fill="#00377B"/>
<path d="M191.82 71.3901V59.6801H186.29V76.7101H192.89L199.39 64.6801V76.7101H204.92V59.6801H198.16L191.82 71.3901Z" fill="#00377B"/>
<path d="M217.22 66.1301H214.54H211.53V63.9301H214.54H222.22V59.6901H214.54H206.05V76.7101H214.54H217.28C223.03 76.7101 223.03 73.2201 223.03 71.2901C223.02 69.4601 223.02 66.1301 217.22 66.1301ZM216.25 72.7301H214.53H211.52V70.1001H214.53H216.25C217.49 70.1001 217.49 70.9601 217.49 71.3401C217.49 71.7701 217.49 72.7301 216.25 72.7301Z" fill="#00377B"/>
<path d="M273.39 61.78H271.99L266.89 74.45H269.68L270.76 71.6H273.39H276.02L277.04 74.45H279.99L274.89 61.78H273.39ZM273.39 69.51H271.56L273.33 64.3L273.38 64.41L275.21 69.51H273.39Z" fill="#00377B"/>
<path d="M261.41 66.67H261.3H259.31V63.99H261.3H264.9V61.79H261.3H256.79V74.46H261.3H261.41C265.06 74.46 265.92 72.1 265.92 70.75C265.92 69.14 265.17 66.67 261.41 66.67ZM261.31 72.46C261.2 72.46 261.04 72.46 260.93 72.46H259.32V68.65H260.93C261.04 68.65 261.2 68.65 261.31 68.65C262.49 68.76 263.24 69.4 263.24 70.58C263.24 71.76 262.49 72.36 261.31 72.46Z" fill="#00377B"/>
<path d="M73.36 57.48H72.45C71.91 71.87 70.57 80.09 68.05 84.38C69.71 84.92 71.54 85.19 73.37 85.19C75.2 85.19 76.97 84.92 78.63 84.38C76.16 80.08 74.82 71.87 74.28 57.48H73.36Z" fill="#00377B"/>
<path d="M300.02 67.52L305.34 61.78H302.28L297.66 67.2H297.61V61.78H295.03V74.45H297.61V68.17H297.66L302.39 74.45H305.66L300.02 67.52Z" fill="#00377B"/>
<path d="M77.07 51.58C76.69 46.1 76.69 43.9 76.64 41.16H75.3C75.3 41.21 75.35 48.78 75.41 51.26C74.93 51.21 74.44 51.21 73.96 51.15C73.96 46.8 73.96 38.8 73.96 34.13H73.37H72.78C72.78 38.8 72.78 46.8 72.78 51.15C72.3 51.2 71.81 51.2 71.33 51.26C71.38 48.79 71.44 41.22 71.44 41.16H70.1C70.05 43.9 70.05 46.1 69.67 51.58C62.03 53.24 56.34 60.06 56.34 68.17C56.34 74.13 59.4 79.34 64.02 82.4C70.2 76.23 71.16 58.77 71.16 57.59C70.25 57.64 69.07 57.91 68.9 57.97C67.51 66.13 64.02 73 60.04 76.71C58.54 74.51 57.73 72.09 57.73 69.73C57.73 62.21 64.93 56.41 73.36 56.41C81.79 56.41 88.93 62.21 88.93 69.73C88.93 72.09 88.18 74.51 86.68 76.71C82.71 73 79.16 66.13 77.82 57.97C77.66 57.92 76.48 57.65 75.56 57.59C75.56 58.77 76.53 76.22 82.7 82.4C87.32 79.34 90.38 74.13 90.38 68.17C90.38 60.06 84.69 53.24 77.07 51.58Z" fill="#00377B"/>
<path d="M108.59 66.9301L105.04 59.6801H98.87L105.74 71.8701L103 76.7101H108.96L118.15 59.6801H112.19L108.59 66.9301Z" fill="#00377B"/>
<path d="M289.34 66.88H284.18V61.78H281.6V74.45H284.18V68.97H289.34V74.45H291.91V61.78H289.34V66.88Z" fill="#00377B"/>
<rect x="0.5" y="0.5" width="360" height="119" stroke="#F2F2F2"/>
</svg>
